<svg width="25" height="24" viewBox="0 0 25 24" fill="none" xmlns="http://www.w3.org/2000/svg">
<path d="M21.1739 17.1449C20.8412 17.9135 20.4474 18.6211 19.9911 19.2715C19.3691 20.1583 18.8599 20.7721 18.4674 21.113C17.859 21.6724 17.2072 21.959 16.5092 21.9753C16.0081 21.9753 15.4038 21.8327 14.7004 21.5434C13.9946 21.2555 13.3461 21.113 12.753 21.113C12.1311 21.113 11.464 21.2555 10.7506 21.5434C10.036 21.8327 9.46034 21.9834 9.02022 21.9984C8.35087 22.0269 7.68369 21.7322 7.01774 21.113C6.59269 20.7422 6.06104 20.1067 5.42415 19.2063C4.74081 18.2449 4.17902 17.13 3.73889 15.8589C3.26754 14.486 3.03125 13.1565 3.03125 11.8694C3.03125 10.3951 3.34983 9.12345 3.98795 8.05784C4.48945 7.20191 5.15663 6.52672 5.99165 6.03105C6.82667 5.53539 7.72891 5.2828 8.70055 5.26664C9.2322 5.26664 9.92939 5.43109 10.7958 5.75429C11.6597 6.07858 12.2145 6.24303 12.4577 6.24303C12.6395 6.24303 13.2558 6.05074 14.3005 5.66738C15.2884 5.31186 16.1222 5.16466 16.8053 5.22264C18.6562 5.37202 20.0468 6.10167 20.9715 7.41619C19.3162 8.4192 18.4973 9.82403 18.5136 11.6262C18.5285 13.03 19.0378 14.1981 20.0386 15.1256C20.4922 15.5561 20.9987 15.8888 21.5623 16.1251C21.44 16.4795 21.311 16.819 21.1739 17.1449ZM16.9288 0.440369C16.9288 1.54062 16.5269 2.56792 15.7257 3.51878C14.7588 4.64917 13.5893 5.30236 12.3211 5.19929C12.3049 5.06729 12.2955 4.92837 12.2955 4.78239C12.2955 3.72615 12.7553 2.59576 13.5719 1.67152C13.9796 1.20356 14.498 0.814453 15.1268 0.504058C15.7542 0.198295 16.3476 0.0292007 16.9057 0.000244141C16.922 0.147331 16.9288 0.294426 16.9288 0.440355V0.440369Z" fill="currentColor"/>
</svg>
