<svg width="25" height="24" viewBox="0 0 25 24" fill="none" xmlns="http://www.w3.org/2000/svg">
<g clip-path="url(#clip0_1192_31656)">
<path d="M24.4323 12.2765C24.4323 11.4608 24.3661 10.6406 24.225 9.83813H12.9062V14.4591H19.388C19.119 15.9495 18.2548 17.2679 16.9893 18.1056V21.104H20.8563C23.1271 19.014 24.4323 15.9274 24.4323 12.2765Z" fill="#4285F4"/>
<path d="M12.9051 24.0008C16.1416 24.0008 18.871 22.9382 20.8596 21.1039L16.9926 18.1055C15.9167 18.8375 14.5278 19.252 12.9096 19.252C9.77892 19.252 7.1245 17.1399 6.17209 14.3003H2.18164V17.3912C4.21875 21.4434 8.36794 24.0008 12.9051 24.0008Z" fill="#34A853"/>
<path d="M6.16879 14.3002C5.66612 12.8099 5.66612 11.196 6.16879 9.70569V6.61475H2.18275C0.480749 10.0055 0.480749 14.0004 2.18275 17.3912L6.16879 14.3002Z" fill="#FBBC04"/>
<path d="M12.9051 4.74966C14.616 4.7232 16.2695 5.36697 17.5085 6.54867L20.9345 3.12262C18.7651 1.0855 15.8858 -0.034466 12.9051 0.000808666C8.36794 0.000808666 4.21875 2.55822 2.18164 6.61481L6.16768 9.70575C7.11568 6.86173 9.77451 4.74966 12.9051 4.74966Z" fill="#EA4335"/>
</g>
<defs>
<clipPath id="clip0_1192_31656">
<rect width="24" height="24" fill="white" transform="translate(0.666016)"/>
</clipPath>
</defs>
</svg>
